<?xml version="1.0"?>
<svg width="1920.94" height="306" xmlns="http://www.w3.org/2000/svg">
 <title>city</title>
 <g>
  <title>Layer 1</title>
  <path d="m0,160.792999l17.974985,-0.182007l0.498848,-4.733994l14.732473,-0.184006l0,-1.457001c0,0 0,-1.366989 1.873421,-1.366989c1.870682,0 1.870682,1.000992 1.870682,1.000992l0.751015,1.277008l4.992596,-0.911011l1.497913,1.275009l5.24202,0.181992l0,5.646011l9.989304,-0.177002l0.498844,-7.109009l1.497917,0.368011l0,5.645996l4.242947,-1.822998l5.740868,2.185989l0,1.093002l-0.744164,0.548004l0.249435,5.281998l3.242508,-0.363998c0,0 2.74778,-1.093002 3.497421,-0.910995c0.746895,0.181992 1.248489,1.457001 1.248489,1.457001l1.744598,0l-0.246681,-0.727005l7.992546,0l0.491982,-0.910995l1.252609,-0.363998l0.498856,1.820999l10.488144,-0.363998l0.24942,2.733994l6.242462,0.182007l0.24942,4.00499l13.733406,0l0,-2.731995l3.744102,0.181992l0.252167,2.550003l4.992592,0.182007l0.24942,-2.548004l4.245697,0l0.246689,2.548004l9.989288,0.18399l0.252182,1.823013l2.995819,0l0.494736,-26.235001l9.739883,0l0.24942,-2.001999l3.996277,-0.184006l0.246674,2.001999l4.743179,-0.179993l0.252167,-1.093002l2.747772,0.179993l1.49791,-0.363998l0,-4.552002l4.24295,-0.365997l0.249435,-1.455002l1.750076,0l0.24942,1.455002l6.737183,-1.093002l5.743622,0l0,-2.005005l4.497864,0.548004l0.249405,1.641006l4.491028,-0.365997l0,-3.643005l14.480286,0l0.249435,3.464005l16.9814,0l1.495178,-0.916l2.495605,-0.180008l0.753769,2.001999l3.242508,-0.179993l0,-1.459l1.003159,0l0,1.822998l20.223923,0.363998l0.494751,6.195999l7.490936,0l-0.24942,-9.656998l44.193298,0.729996l0,8.014008l51.684235,0.181992l2.246216,-107.853996l11.484497,-0.542999l13.859467,1.730999l0,-1.002998l-1.999512,0l0,-1.093002l1.623993,0l0,-2.823997l0.877106,0l0,3.098l2.993073,0l0,-2.549999l1.122406,0l0,2.641998l2.495605,0.542999l-0.246674,0.822002l-0.624908,0l0,0.73l2.369507,0.181999l0,5.466l8.617462,-0.544998l0,-1.003002l0.501587,0l0,0.821999l1.867981,0l0,-9.477997l10.115387,-0.272003l0,-1.092999l0.996307,0l0,-2.639999l-0.874359,0l0,-1.008999l2.999939,0l0,4.008999l0.74823,0l0,1.364998l6.365875,0l0,-2.097l2.498322,0l0,1.369003l-0.874359,0l0.126068,1.182999l12.733002,1.002998l-0.126129,14.118l7.740387,0.638l0,1.641003l1.374573,1.002998l-1.628082,76.060993l8.491333,-0.363998l5.242065,0.09201l0.501587,-8.838005l5.614807,-0.363998l0,-4.829002l23.848724,-0.183998l0,-2l18.098419,-0.097l0,-2l1.999451,0l0,-11.662003l1.31012,-0.956001l0,-6.056l5.432556,0l0,-4.643997l2.246155,0l0,0.453003l2.747803,0l0,-7.379005l0.618103,0.363998l0,1.459007l1.500671,0.183998l0,0.542999l1.876099,0l0.123352,-0.909004l1.000488,-0.181999l0,0.909004l2.621643,0.089996l0.375549,-0.817001l1.497925,-0.091995l0.365906,0.819l2.999939,0.089996l-0.130188,-0.723l1.374573,0.090004l0,0.545998l2.495605,0l0,-1.093002l0.630371,-0.183998l0.123352,-1.455002l1.11969,0l0.254944,2.732002l3.116394,0.089996l0.126099,-2.093994l0.750977,0.091995l0.372803,2.001999l2.248901,0.458l0.116455,-2.459999l0.504395,0l0.123352,2.550003l2.372253,0.274002l0.49884,-0.730003l0,-1.000999l1.248474,0.092003l0.126099,1.912994l-0.498901,0.546005l0.126099,4.282997l4.119629,0.181999l0.746887,4.278999l0.624939,0.094002l0.504333,0.726997l2.246216,-0.089996l0.123291,-7.742004l1.11969,0.090004l0.378235,8.015999l11.111694,0.363998l-1.129272,37.347008l1.500671,0l0,0.819l0.498901,0.276001l-0.120605,1.090988l-0.750977,0.184006l-0.246765,7.925995l1.492493,0.272003l0,1.001007l-1.003235,0l-0.120544,2.916c0,0 8.361145,-0.090012 7.987061,-0.090012c-0.372803,0 0.252136,1.091003 0.252136,1.091003l4.369019,0.089996l-0.627625,1.093002l-0.748291,0.274002l-1.116943,0l0.492004,5.374008l1.003174,0.457993l0,5.919998l1.870667,0l0.87439,-70.140999l12.480774,-1.546997l0,-4.195l14.361084,-1.547005l0,-0.639999l3.74408,0l0.49884,0.458l34.080688,1.000999l0,4.647003l13.730652,0.729996l-0.242554,-8.199997l4.740417,-1.093002l1.996765,-14.847l41.823853,0.364006l2.747681,15.668999l7.740356,0.087997l-0.126038,-1.728996l1.371826,0.089996l1.371826,-12.569l5.620361,-0.544998l-0.252258,-24.869999l16.605957,0.091999l10.610046,0.821999l0,-35.714999l7.614319,-1.547l4.245667,0l0,-1.459001l0.746948,0l0,1.277l11.363831,-0.274l0,-1.638l0.744202,0l0,1.457l6.744019,-0.272l0,0.909l1.371826,0l0,-0.819l8.491394,0l10.364746,2.55l14.22821,-0.727l3.615295,1.275l-1.369141,75.243002l10.112671,1.000999l0.375549,-11.024002l5.365295,0.092003l0,-9.199005l13.982849,-1.092995l-0.375549,-12.299004l1.754211,-0.73l7.115417,-0.542999l0,-12.117001l1.371887,-0.545998c0,0 6.36853,-0.73 5.992981,-0.73c-0.378174,0 18.476563,-10.384003 18.476563,-10.384003l3.741333,0l18.599976,10.202999l0.877136,0.182003l0.24939,0.548l5.86969,0.726997l-0.128845,12.479l8.993042,0.822002l-0.128845,20.494995l17.979065,0.274002l0.501587,-3.460999l0.87439,0l0.24939,2.276001l0.874329,0l-0.126038,1.184998l32.207214,0.544998l0.12616,3.280006l9.992004,-0.730003l0.372803,-6.285004l7.112671,-0.179993l2.750488,-5.102005l0.24939,-2.371002l1.618591,0l0.627686,1.913002l2.747742,0l0,-0.452995l3.123291,0l0,0.544998l16.975891,-1.455002l0,-0.732002l-0.870239,0l0,-1.546997l5.358521,0l0,2.365997l4.374512,0.094002l0,-1.000999l1.86792,-1.368999l1.624023,0.091999l0,1.364998l-0.996338,0.094002l0.501587,1.000999l1.000488,0.090004l0.372681,1.912994l-0.123291,0.730003l0.87439,-0.089996l0,1.730995l0.746826,0l0,1.271004l7.737671,0l-0.624878,38.625999l-5.113281,0l-0.125977,12.389l2.995728,0.181999l0,15.030998l2.621704,0.089996l0,-9.016998l1.497925,-0.181992l0.123291,-2.914009l13.108521,0.543007l0,-0.909004l13.229126,0l0,0.819l5.750366,0l0.120728,-48.460999l0.874268,-0.456001l1.624023,-0.089996l0.123291,-0.458l1.252563,-0.182007l0.372803,-0.363998l3.870239,-0.089996l0.123291,-0.548004l2.747803,-0.091995l0,-5.374001l4.371826,-1.547005l26.841919,0.638l0,-0.638l2.995728,0l0,0.545006l12.480835,-0.092003l0.375488,7.473l11.235107,0.087997l-0.501587,89l1.99939,-0.091995l0.126221,-60.667999l0.876953,-0.092003l0.123413,-1.364998l7.364868,0.089996l0,1.182999l2.122803,0l0,-0.726997l7.238892,0l0,0.639999l1.245728,0l-0.24939,-31.611l10.244141,-3.098l-0.132935,-5.281998l9.238281,-3.190002l27.967041,0.274002l0,2.459999l1.870605,-0.091999l2.368164,-0.638l0,-0.816002l1.000488,0l0.625,0.453003l6.494629,-0.092003l0,-0.909l-0.625,0l-1.436279,-1.045998l1.122437,-0.822002l1.562256,-1.137997l1.870728,0l0,-2.826l1.374634,0l0,3.009998l15.730103,-0.183998l0,-0.822002l1.371948,0l0,1.185001l2.122681,0.638l0.126221,1.000999l-1.628052,1.822998l0.252075,4.097l1.248413,0.550003l3.119263,0l-0.123413,0.361l1.126587,0.091995l0,6.012001l6.484985,0l0,-0.817001l1.126587,-0.821999l1.747314,0.911003l0.254883,30.241997l1.86792,0.366005l0,6.828995l5.37085,0.276001l-0.128784,7.195l2.377686,0.274002l0.246704,3.735001l1.371826,0.363998l0.123291,13.940002l0.877075,0.089996l-0.125977,33.703003l0.494629,-0.089996l0.378296,-0.911011l4.119751,0l0,0.727005c0,0.365997 0.378174,0.365997 0.378174,0.365997l0.120605,0.908997l7.869141,-0.089996l-0.375488,-5.013c0,0 -1.374634,-1.000992 -2.125488,-1.091003l-0.249512,-0.638l3,0l0,-0.637985l2.866943,0.091995l0,0.272003l1.003174,0.365997l0.120728,0.274002l2.500977,0l0.249512,-0.458008c0,0 0.498779,-0.360992 1.371704,-0.544998c0.877197,-0.181992 1.371948,0.729996 1.371948,0.729996l2.869629,0l-0.372681,-5.557999l1.504639,-0.181992l-0.132813,-21.406006l2.375,-1.548996l7.989746,0l0.249512,-53.653l2.621704,-0.092003l0,-4.917999l1.747192,0.092003l0.126221,1.000999l1.122314,-0.182007l-0.126099,-0.910995l11.855835,0.092003l5.122925,-10.75l0.249268,-1.821003l0.501709,-0.366001l0.620728,-2.916l0.74707,2.916l0.750854,0.544998l0.372803,1.640999l4.497803,11.204002l28.211182,0.458l3.744019,0.090004l3.627563,2.093994l0.246704,11.204002l1.122437,0.183998l0.498779,0.909004l1.122437,0.091995l-0.123291,39.625l8.740723,0l5.614868,2.734009l-0.123291,5.737991l2.624268,0.274002l-0.128906,5.556l4.624146,0.089996l0,16.580002l2.241943,0l0,-2.278l13.234619,-0.634995l0,-3.917007l1.119629,-0.821991l1.754272,0l0.252075,-8.470001l4.737793,-2.278l2.372192,0l0,-0.819l-1.248413,0l0,-7.014999l6.242432,-2.458008l27.845093,0.272003l0,7.378998l-1.381348,0.910995l0.13562,1.457001l7.614258,0l0.116577,3.554001l-0.741577,0.366013l0.489258,0.634995l8.869629,5.192001l5.125488,0.091995l0,8.106003l5.986328,0l0,20.041992l10.244019,0l0,-53.653l10.103027,0l0,-0.913994l1.374756,0l0,1.002998l1.741699,0l0,-0.819l1.132202,0l0,0.819l3.113525,0l0,-1.548996l0.748413,0l0,1.459l11.73938,0.363998l0,-1.184998l1.003052,-0.272003l0.365967,0.272003l0.24939,0.729996l1.756958,0l0,-1.822998l2.738281,0l0,1.641006l1.876221,0l0,-1.003006l2.995605,0l0,0.914001l0.501709,-0.092003l1.747192,-1.093002l0,1.549004l44.814331,0.634995l0.378174,45.365005l15.224487,0.091995l0.132813,4.283005l0.996338,0.272003l0.126221,0.638l2.120117,-0.09201l0.249512,-0.72699l1.248169,-0.546005l0.874512,0.817001l0.126221,0.455994l7.485229,-0.089996l0,-13.210999l3.000122,-0.181992l1.126343,-0.819l0.867676,0.179993l0.378174,0.365997l1.996826,0l0.128784,-3.188004l7.481323,0.090012l0.132935,-2.73201l1.119507,-0.274002l7.36499,-0.365997l0.128784,-3.366989l12.976929,0.542999l0,23.776993l3.627808,0.274002l0.120361,1.365005l6.875732,-0.272003l3.236938,-2.005005l5.128418,0l0.242554,-1.459l5.491333,-0.181992l-0.491943,-31.151001l4.989746,-0.094009l0,0.639999l7.22937,-0.181992l1.504639,-2.005005l-0.113647,-1.365005l2.735352,-1.276993l0,0.910995l10.607422,0.09201l0,3.279999l12.121826,-0.456009l0.113647,13.846008l1.374634,0l-0.498901,21.405991l1.883179,-0.091995l-0.385132,-33.888l12.858887,0.182007l0,-2.276001l-0.624878,0l-0.126099,-0.456009l1.495239,-0.091995l0.380859,-1.546997l0.62085,-0.09201l1.501953,0.819l0.249512,0.548004l10.235962,-0.365997l0.126099,2.188995l-1.248535,0.089996l0.123291,1.183014l8.115967,-0.090012l0.252197,-0.638l4.491089,0l-0.120605,14.299011l1.119629,0.091995l0.252075,17.035995l13.723877,-17.397003l-0.368652,-0.821991l0.753784,-0.274002l0,-0.819l2.120117,-0.089996l-0.252197,1.36499l-0.999023,0.090012l-0.498901,0.641998l-14.853027,18.397995l0,5.374008l8.358398,-0.276001l0.128906,-2.09201l7.980225,0.09201l0.13562,1.912994l9.484985,0.184006l0,-2.278l3.744019,0l-0.123291,-0.822006l2.246338,0.274002l0,0.817001l1.126343,0.093994l0,1.548996l0.996216,-0.457993l0,-6.283005l13.985596,0l0.867554,-0.729996l1.500732,-0.455994l0.627686,1.000992l11.610596,0.363998l0,3.645996l0.996094,0.09201l0.123535,3.550995l16.479614,0l0.252319,0.910995l2.869751,0.09201l-0.126099,-7.742004l10.736206,-0.639999l-0.125977,-4.007004l1.873291,-1.274994l3.119141,0l0,2.914001l3.627563,0l0.48938,0.365997l8.494141,0l0,2.093994l2.617554,0l0,8.290009l9.238281,0l0,-3.372009l23.761108,0l0,26.417007l-1919.952148,0l0,-48.369003" fill="#063559" id="Imported-Layers"/>
  <g id="Line">
   <rect x="0" id="svg_1" height="11" width="1920.939996" fill="#07355A" y="295"/>
  </g>
  <g id="Line-copy">
   <rect x="0" id="svg_2" height="21" width="1921.939957" fill="#07355A" y="261"/>
  </g>
  <g id="Line-copy-2">
   <rect x="0" id="svg_3" height="37" width="1920.940056" fill="#07355A" y="215"/>
  </g>
 </g></svg>